<svg id="Layer_1" data-name="Layer 1" xmlns="http://www.w3.org/2000/svg" viewBox="0 0 1091.17 105.08"><defs><style>.cls-1{fill:#e56b1f;}</style></defs><path class="cls-1" d="M6560.48,7230.08l3.77-16.13h9.92l38.89-70.67h-10l3.62-16.13h59.55l-3.61,16.13h-8.76l3,70.67h10.58l-3.78,16.13h-42.92l3.85-16.13h9.55v-17.24h-31.23l-8.67,17.24h9.57l-3.78,16.13Zm73-48-1.17-39.66h-1l-20.69,39.66Z" transform="translate(-6560.48 -7127.15)"/><path class="cls-1" d="M6750.13,7214.76l-3.62,15.32h-31.6l2.15-9.3q-15,10.05-25.81,10a14.7,14.7,0,0,1-10.62-4.4,13.91,13.91,0,0,1-4.5-10.25,61.7,61.7,0,0,1,1.78-13.1l6.88-29.37h-9.69l3.62-15.32h31.67l-10.76,46.25a14.55,14.55,0,0,0-.45,3.41q0,5.53,4.58,5.54,2.73,0,7.67-2.37a42.66,42.66,0,0,0,9.22-6l7.28-31.51h-9.69l3.62-15.32h31.63l-13,56.38Z" transform="translate(-6560.48 -7127.15)"/><path class="cls-1" d="M6804.08,7211.29l-3.92,16.5a43.23,43.23,0,0,1-18.46,4.44q-6.95,0-11.19-4a13.9,13.9,0,0,1-4.25-10.55,42.19,42.19,0,0,1,1.26-10l7.8-34h-8.39l3.49-15.32h8.45l2.42-10.44,26.25-18.24-6.72,28.68h9.62L6807,7173.7h-9.58l-7.77,33.22a19,19,0,0,0-.59,4.07c0,2.52,1.49,3.77,4.49,3.77Q6797.82,7214.76,6804.08,7211.29Z" transform="translate(-6560.48 -7127.15)"/><path class="cls-1" d="M6845.74,7232.23q-13.84,0-22.46-8.33t-8.62-21.6q0-19.24,12.76-32.51a41.81,41.81,0,0,1,31.34-13.26q14.51,0,22.87,9.22a31.89,31.89,0,0,1,8.36,22.18,43.1,43.1,0,0,1-12.69,31.37Q6864.61,7232.23,6845.74,7232.23Zm11-59.64q-9.09,0-14.46,9.74a42.31,42.31,0,0,0-5.37,20.72q0,6,2.81,9.56a9.2,9.2,0,0,0,7.63,3.56q8.94,0,14.65-9.71a40.28,40.28,0,0,0,5.69-20.68q0-6-3-9.6A9.78,9.78,0,0,0,6856.76,7172.59Z" transform="translate(-6560.48 -7127.15)"/><path class="cls-1" d="M6894.06,7230.08l3.85-16.13H6908l16.36-70.67h-10.14l3.62-16.13h53.51q14.05,0,21.94,8.18a27.4,27.4,0,0,1,7.88,19.72,29.51,29.51,0,0,1-6.11,18.13q-6.12,8.13-17.52,9.62l8.83,31.15h10.28l-3.77,16.13h-26.25l-11.34-45.73h-14.39l-6.85,29.6h9.84l-3.92,16.13Zm49.95-59h11.07q19.48,0,19.49-16.17a11.13,11.13,0,0,0-3.33-8.56,12.65,12.65,0,0,0-8.95-3.1h-11.84Z" transform="translate(-6560.48 -7127.15)"/><path class="cls-1" d="M7056.56,7208.7l16.2,7.32q-10.8,16.21-32.26,16.21-15,0-23.83-8.48t-8.88-22.63a45.26,45.26,0,0,1,11.92-31.37q11.91-13.22,29.45-13.22,13.6,0,22.71,8.62t9.11,23.27a53.52,53.52,0,0,1-1,10.21H7029a26,26,0,0,0-.44,4.68q0,6.84,3.66,10.74a12.63,12.63,0,0,0,9.66,3.9Q7051.15,7218,7056.56,7208.7Zm-24.87-21.76H7060a17.87,17.87,0,0,0,.3-3.25,12.72,12.72,0,0,0-3.44-9.29,11.4,11.4,0,0,0-8.47-3.52Q7037,7170.88,7031.69,7186.94Z" transform="translate(-6560.48 -7127.15)"/><path class="cls-1" d="M7142.17,7203.89l15.76,7.69q-12.42,20.66-34.41,20.65-14.87,0-23.86-8.73t-9-23.09a41.61,41.61,0,0,1,12.32-30.19q12.32-12.59,29.49-12.58a29,29,0,0,1,17.24,5.47l1.11-4.73h16.06l-6.22,26.86h-16.06q-.81-10.36-11.84-10.36-8.13,0-13.76,7.45t-5.62,18.5a14.32,14.32,0,0,0,3.44,9.93,11.31,11.31,0,0,0,8.84,3.86Q7135.58,7214.62,7142.17,7203.89Z" transform="translate(-6560.48 -7127.15)"/><path class="cls-1" d="M7202.48,7232.23q-13.84,0-22.46-8.33t-8.62-21.6q0-19.24,12.77-32.51a41.79,41.79,0,0,1,31.33-13.26q14.51,0,22.87,9.22a31.89,31.89,0,0,1,8.36,22.18A43.1,43.1,0,0,1,7234,7219.3Q7221.35,7232.23,7202.48,7232.23Zm11-59.64q-9.11,0-14.47,9.74a42.31,42.31,0,0,0-5.37,20.72q0,6,2.82,9.56a9.17,9.17,0,0,0,7.62,3.56q9,0,14.65-9.71a40.19,40.19,0,0,0,5.7-20.68q0-6-3-9.6A9.81,9.81,0,0,0,7213.51,7172.59Z" transform="translate(-6560.48 -7127.15)"/><path class="cls-1" d="M7250.06,7230.08l3.48-15.32h7.92l9.54-41.06h-10.8l3.47-15.32h32.69l-2,8.95q10.2-6.28,14.9-8.06a27.35,27.35,0,0,1,9.8-1.78,16.07,16.07,0,0,1,11.87,4.62q4.62,4.64,4.62,12.25a28.57,28.57,0,0,1-.74,6.29l-7.91,34.11h9.79l-3.55,15.32h-31.67l10.5-45.28a17.29,17.29,0,0,0,.52-3.93q0-6.14-5.26-6.14-5.42,0-16.39,7.91l-7.38,32.12h9.13l-3.56,15.32Z" transform="translate(-6560.48 -7127.15)"/><path class="cls-1" d="M7341.6,7230.08l3.47-15.32H7353l9.55-41.06h-10.81l3.47-15.32h32.7l-2.06,8.95q10.2-6.28,14.9-8.06a27.39,27.39,0,0,1,9.8-1.78,16.1,16.1,0,0,1,11.88,4.62q4.62,4.64,4.62,12.25a28.57,28.57,0,0,1-.74,6.29l-7.92,34.11h9.79l-3.55,15.32H7393l10.51-45.28a17.87,17.87,0,0,0,.52-3.93q0-6.14-5.27-6.14t-16.38,7.91l-7.38,32.12h9.12l-3.55,15.32Z" transform="translate(-6560.48 -7127.15)"/><path class="cls-1" d="M7490.55,7208.7l16.21,7.32q-10.82,16.21-32.26,16.21-15,0-23.83-8.48t-8.88-22.63a45.3,45.3,0,0,1,11.91-31.37q11.91-13.22,29.45-13.22,13.62,0,22.72,8.62t9.1,23.27a53.48,53.48,0,0,1-1,10.21H7463a26,26,0,0,0-.45,4.68q0,6.84,3.66,10.74a12.66,12.66,0,0,0,9.66,3.9Q7485.16,7218,7490.55,7208.7Zm-24.86-21.76H7494a17.87,17.87,0,0,0,.3-3.25,12.72,12.72,0,0,0-3.44-9.29,11.43,11.43,0,0,0-8.48-3.52Q7471,7170.88,7465.69,7186.94Z" transform="translate(-6560.48 -7127.15)"/><path class="cls-1" d="M7576.17,7203.89l15.76,7.69q-12.43,20.66-34.41,20.65-14.88,0-23.86-8.73t-9-23.09a41.57,41.57,0,0,1,12.32-30.19q12.32-12.59,29.48-12.58a29.07,29.07,0,0,1,17.25,5.47l1.11-4.73h16.05l-6.21,26.86h-16.06q-.81-10.36-11.84-10.36-8.15,0-13.76,7.45t-5.63,18.5a14.37,14.37,0,0,0,3.44,9.93,11.33,11.33,0,0,0,8.85,3.86Q7569.58,7214.62,7576.17,7203.89Z" transform="translate(-6560.48 -7127.15)"/><path class="cls-1" d="M7645.28,7211.29l-3.91,16.5a43.27,43.27,0,0,1-18.47,4.44q-6.93,0-11.18-4a13.86,13.86,0,0,1-4.25-10.55,42.69,42.69,0,0,1,1.25-10l7.81-34h-8.4l3.49-15.32h8.46l2.41-10.44,26.25-18.24-6.71,28.68h9.62l-3.44,15.32h-9.58l-7.76,33.22a18.5,18.5,0,0,0-.6,4.07c0,2.52,1.5,3.77,4.49,3.77S7641.11,7213.61,7645.28,7211.29Z" transform="translate(-6560.48 -7127.15)"/></svg>